<?xml version="1.0" encoding="UTF-8" standalone="no"?>
<svg
   viewBox="0 0 630 262.62836"
   version="1.1"
   id="svg6"
   sodipodi:docname="js logo_2.svg"
   inkscape:version="1.2.1 (9c6d41e410, 2022-07-14)"
   width="630"
   height="262.62836"
   xmlns:inkscape="http://www.inkscape.org/namespaces/inkscape"
   xmlns:sodipodi="http://sodipodi.sourceforge.net/DTD/sodipodi-0.dtd"
   xmlns="http://www.w3.org/2000/svg"
   xmlns:svg="http://www.w3.org/2000/svg">
  <defs
     id="defs10" />
  <sodipodi:namedview
     id="namedview8"
     pagecolor="#ffffff"
     bordercolor="#000000"
     borderopacity="0.25"
     inkscape:showpageshadow="2"
     inkscape:pageopacity="0.0"
     inkscape:pagecheckerboard="0"
     inkscape:deskcolor="#d1d1d1"
     showgrid="false"
     inkscape:zoom="1.2984127"
     inkscape:cx="317.31051"
     inkscape:cy="77.4022"
     inkscape:window-width="1920"
     inkscape:window-height="1002"
     inkscape:window-x="-8"
     inkscape:window-y="-8"
     inkscape:window-maximized="1"
     inkscape:current-layer="svg6" />
  <rect
     width="630"
     height="263.3985"
     fill="#f7df1e"
     id="rect2"
     x="2.244266e-07"
     y="-0.77016675"
     style="stroke-width:0.646601" />
  <path
     d="m 345.21813,158.35058 c 5.95762,9.08135 13.70865,15.75649 27.4173,15.75649 11.51621,0 18.87286,-5.37341 18.87286,-12.79803 0,-8.89727 -7.55853,-12.04856 -20.23434,-17.22476 l -6.94822,-2.78313 c -20.05595,-7.97687 -33.37962,-17.96985 -33.37962,-39.09537 0,-19.460038 15.88231,-34.274198 40.70342,-34.274198 17.67101,0 30.37499,5.74159 39.52974,20.7749 L 389.5365,101.67982 c -4.76515,-7.976848 -9.90591,-11.119378 -17.88697,-11.119378 -8.14068,0 -13.3002,4.82118 -13.3002,11.119378 0,7.78402 5.16421,10.93532 17.08886,15.75649 l 6.94822,2.77876 c 23.61457,9.4539 36.94763,19.09187 36.94763,40.76087 0,23.3608 -19.6569,36.15884 -46.05543,36.15884 -25.8117,0 -42.48743,-11.48317 -50.64689,-26.53401 z m -98.18118,2.24843 c 4.36612,7.23177 8.33788,13.3459 17.88698,13.3459 9.13128,0 14.89173,-3.33537 14.89173,-16.30434 V 69.412992 h 27.79288 V 157.9912 c 0,26.86711 -16.87291,39.09537 -41.50154,39.09537 -22.25307,0 -35.14014,-10.75123 -41.69401,-23.70047 z"
     id="path4"
     style="stroke-width:0.453614" />
</svg>
